<svg width="72" height="72" viewBox="0 0 72 72" fill="none" xmlns="http://www.w3.org/2000/svg">
<g clip-path="url(#clip0_2752_474)">
<g clip-path="url(#clip1_2752_474)">
<path d="M68.0425 43.7454C63.7682 60.8904 46.4031 71.3245 29.2561 67.0491C12.1164 62.7747 1.68227 45.4086 5.95846 28.265C10.2309 11.1182 27.5959 0.683346 44.7376 4.95766C61.8834 9.23197 72.3168 26.6 68.042 43.7457L68.0423 43.7454H68.0425Z" fill="#F7931A"/>
<path d="M51.1122 31.4437C51.7492 27.1847 48.5067 24.8954 44.0728 23.3681L45.5112 17.599L41.9994 16.7239L40.5991 22.3412C39.6759 22.1109 38.7278 21.8939 37.7854 21.6788L39.1958 16.0245L35.6861 15.1494L34.247 20.9167C33.483 20.7427 32.7326 20.5708 32.0045 20.3897L32.0086 20.3715L27.1657 19.1622L26.2315 22.9131C26.2315 22.9131 28.837 23.5103 28.7821 23.5471C30.2042 23.902 30.4613 24.8434 30.4186 25.5896L28.7802 32.162C28.8781 32.1869 29.0051 32.2229 29.1453 32.2792C29.0281 32.2501 28.9035 32.2183 28.7741 32.1874L26.4775 41.3944C26.3037 41.8265 25.8626 42.4749 24.8683 42.2287C24.9035 42.2796 22.3158 41.5917 22.3158 41.5917L20.5723 45.6116L25.1424 46.7509C25.9926 46.9641 26.8257 47.1872 27.6462 47.397L26.193 53.2323L29.7008 54.1074L31.1399 48.334C32.0982 48.5941 33.0282 48.8341 33.9386 49.0603L32.5043 54.8065L36.0163 55.6815L37.4694 49.8571C43.4579 50.9905 47.9608 50.5336 49.8561 45.117C51.3833 40.756 49.7801 38.2406 46.6295 36.6003C48.9242 36.0711 50.6526 34.5618 51.1135 31.4442L51.1124 31.4434L51.1122 31.4437ZM43.0884 42.6951C42.0031 47.0561 34.6606 44.6987 32.28 44.1075L34.2085 36.3767C36.5889 36.971 44.2227 38.1471 43.0886 42.6951H43.0884ZM44.1745 31.3805C43.1845 35.3473 37.0732 33.332 35.0907 32.8378L36.8392 25.8264C38.8216 26.3206 45.2059 27.2429 44.1748 31.3805H44.1745Z" fill="white"/>
</g>
<rect x="3" y="2" width="68" height="68.0072" stroke="black" stroke-width="4"/>
</g>
<rect x="2" y="2" width="68" height="68" rx="34" stroke="#0F0F0F" stroke-width="4"/>
<defs>
<clipPath id="clip0_2752_474">
<rect x="4" y="4" width="64" height="64" rx="32" fill="white"/>
</clipPath>
<clipPath id="clip1_2752_474">
<rect x="5" y="4" width="64" height="64.0072" fill="white"/>
</clipPath>
</defs>
</svg>
