<svg width="72" height="72" viewBox="0 0 72 72" fill="none" xmlns="http://www.w3.org/2000/svg">
<rect x="2" y="2" width="68" height="68" rx="34" fill="white"/>
<rect x="2" y="2" width="68" height="68" rx="34" stroke="#0F0F0F" stroke-width="4"/>
<g clip-path="url(#clip0_2752_463)">
<path d="M35.9954 13L35.6895 14.0483V44.4642L35.9954 44.7721L49.9909 36.4266L35.9954 13Z" fill="#343434"/>
<path d="M35.9959 13L22 36.4266L35.9959 44.7721V30.009V13Z" fill="#8C8C8C"/>
<path d="M35.9966 47.4447L35.8242 47.6568V58.4914L35.9966 58.9992L50.0007 39.1035L35.9966 47.4447Z" fill="#3C3C3B"/>
<path d="M35.9959 58.9992V47.4447L22 39.1035L35.9959 58.9992Z" fill="#8C8C8C"/>
<path d="M35.9961 44.7718L49.9916 36.4263L35.9961 30.0088V44.7718Z" fill="#141414"/>
<path d="M22 36.4263L35.9959 44.7718V30.0088L22 36.4263Z" fill="#393939"/>
</g>
<defs>
<clipPath id="clip0_2752_463">
<rect width="28" height="46" fill="white" transform="translate(22 13)"/>
</clipPath>
</defs>
</svg>
