<svg width="64" height="64" viewBox="0 0 64 64" fill="none" xmlns="http://www.w3.org/2000/svg">
<mask id="mask0_2752_704" style="mask-type:luminance" maskUnits="userSpaceOnUse" x="-12" y="0" width="87" height="64">
<rect x="-12" width="87" height="64" fill="white"/>
</mask>
<g mask="url(#mask0_2752_704)">
<path fill-rule="evenodd" clip-rule="evenodd" d="M-12 0V64H75V0H-12Z" fill="#F7FCFF"/>
<mask id="mask1_2752_704" style="mask-type:luminance" maskUnits="userSpaceOnUse" x="-12" y="0" width="87" height="64">
<path fill-rule="evenodd" clip-rule="evenodd" d="M-12 0V64H75V0H-12Z" fill="white"/>
</mask>
<g mask="url(#mask1_2752_704)">
<path fill-rule="evenodd" clip-rule="evenodd" d="M-12 0V21.3333H75V0H-12Z" fill="#FF8C1A"/>
<path fill-rule="evenodd" clip-rule="evenodd" d="M-12 42.667V64.0003H75V42.667H-12Z" fill="#5EAA22"/>
<path fill-rule="evenodd" clip-rule="evenodd" d="M20.625 31.9997C20.625 37.8907 25.4939 42.6663 31.5 42.6663C37.5061 42.6663 42.375 37.8907 42.375 31.9997C42.375 26.1086 37.5061 21.333 31.5 21.333C25.4939 21.333 20.625 26.1086 20.625 31.9997ZM39.6562 31.9997C39.6562 36.418 36.0046 39.9997 31.5 39.9997C26.9954 39.9997 23.3438 36.418 23.3438 31.9997C23.3438 27.5814 26.9954 23.9997 31.5 23.9997C36.0046 23.9997 39.6562 27.5814 39.6562 31.9997Z" fill="#3D58DB"/>
<path fill-rule="evenodd" clip-rule="evenodd" d="M31.4859 34.2949L29.934 42.6164L30.8351 34.2031L26.9558 41.7587L30.237 33.9352L24.3446 40.1127L29.7401 33.5129L22.312 37.8119L29.3847 32.9704L21.0226 35.0426L29.1994 32.3516L20.5809 32.0291L29.1994 31.7067L21.0226 29.0157L29.3847 31.0879L22.312 26.2464L29.7401 30.5454L24.3446 23.9455L30.237 30.123L26.9558 22.2996L30.8351 29.8551L29.934 21.4419L31.4859 29.7634L33.0379 21.4419L32.1367 29.8551L36.016 22.2996L32.7348 30.123L38.6272 23.9455L33.2317 30.5454L40.6598 26.2464L33.5872 31.0879L41.9492 29.0157L33.7724 31.7067L42.391 32.0291L33.7724 32.3516L41.9492 35.0426L33.5872 32.9704L40.6598 37.8119L33.2317 33.5129L38.6272 40.1127L32.7348 33.9352L36.016 41.7587L32.1367 34.2031L33.0379 42.6164L31.4859 34.2949Z" fill="#3D58DB"/>
</g>
</g>
</svg>
