<svg width="64" height="64" viewBox="0 0 64 64" fill="none" xmlns="http://www.w3.org/2000/svg">
<mask id="mask0_2752_692" style="mask-type:luminance" maskUnits="userSpaceOnUse" x="-12" y="0" width="87" height="65">
<rect x="-12" width="87" height="65" fill="white"/>
</mask>
<g mask="url(#mask0_2752_692)">
<path fill-rule="evenodd" clip-rule="evenodd" d="M-12 0V65H75V0H-12Z" fill="#2E42A5"/>
<mask id="mask1_2752_692" style="mask-type:luminance" maskUnits="userSpaceOnUse" x="-12" y="0" width="87" height="65">
<path fill-rule="evenodd" clip-rule="evenodd" d="M-12 0V65H75V0H-12Z" fill="white"/>
</mask>
<g mask="url(#mask1_2752_692)">
<mask id="mask2_2752_692" style="mask-type:luminance" maskUnits="userSpaceOnUse" x="-12" y="0" width="87" height="65">
<rect x="-12" width="87" height="65" fill="white"/>
</mask>
<g mask="url(#mask2_2752_692)">
<path d="M-21.6875 60.3563L-2.54291 68.4219L75.4342 8.76915L85.5325 -3.21653L65.0602 -5.91228L33.2552 19.7938L7.6554 37.1137L-21.6875 60.3563Z" fill="white"/>
<path d="M-19.0664 66.0079L-9.31312 70.6885L81.9065 -4.32948H68.2117L-19.0664 66.0079Z" fill="#F50100"/>
<path d="M84.6875 60.3563L65.5429 68.4219L-12.4342 8.76915L-22.5325 -3.21653L-2.06016 -5.91228L29.7448 19.7938L55.3446 37.1137L84.6875 60.3563Z" fill="white"/>
<path d="M84.0352 64.4122L74.2819 69.0928L35.4396 36.9737L23.9237 33.3851L-23.5033 -3.17523H-9.80859L37.5918 32.5173L50.1824 36.8204L84.0352 64.4122Z" fill="#F50100"/>
<mask id="path-9-inside-1_2752_692" fill="white">
<path fill-rule="evenodd" clip-rule="evenodd" d="M41.7721 -5.41699H21.2305V21.6663H-17.3613V43.333H21.2305V70.4163H41.7721V43.333H80.5137V21.6663H41.7721V-5.41699Z"/>
</mask>
<path fill-rule="evenodd" clip-rule="evenodd" d="M41.7721 -5.41699H21.2305V21.6663H-17.3613V43.333H21.2305V70.4163H41.7721V43.333H80.5137V21.6663H41.7721V-5.41699Z" fill="#F50100"/>
<path d="M21.2305 -5.41699V-7.41699H19.2305V-5.41699H21.2305ZM41.7721 -5.41699H43.7721V-7.41699H41.7721V-5.41699ZM21.2305 21.6663V23.6663H23.2305V21.6663H21.2305ZM-17.3613 21.6663V19.6663H-19.3613V21.6663H-17.3613ZM-17.3613 43.333H-19.3613V45.333H-17.3613V43.333ZM21.2305 43.333H23.2305V41.333H21.2305V43.333ZM21.2305 70.4163H19.2305V72.4163H21.2305V70.4163ZM41.7721 70.4163V72.4163H43.7721V70.4163H41.7721ZM41.7721 43.333V41.333H39.7721V43.333H41.7721ZM80.5137 43.333V45.333H82.5137V43.333H80.5137ZM80.5137 21.6663H82.5137V19.6663H80.5137V21.6663ZM41.7721 21.6663H39.7721V23.6663H41.7721V21.6663ZM21.2305 -3.41699H41.7721V-7.41699H21.2305V-3.41699ZM23.2305 21.6663V-5.41699H19.2305V21.6663H23.2305ZM-17.3613 23.6663H21.2305V19.6663H-17.3613V23.6663ZM-15.3613 43.333V21.6663H-19.3613V43.333H-15.3613ZM21.2305 41.333H-17.3613V45.333H21.2305V41.333ZM23.2305 70.4163V43.333H19.2305V70.4163H23.2305ZM41.7721 68.4163H21.2305V72.4163H41.7721V68.4163ZM39.7721 43.333V70.4163H43.7721V43.333H39.7721ZM80.5137 41.333H41.7721V45.333H80.5137V41.333ZM78.5137 21.6663V43.333H82.5137V21.6663H78.5137ZM41.7721 23.6663H80.5137V19.6663H41.7721V23.6663ZM39.7721 -5.41699V21.6663H43.7721V-5.41699H39.7721Z" fill="white" mask="url(#path-9-inside-1_2752_692)"/>
</g>
</g>
</g>
</svg>
