<svg width="64" height="64" viewBox="0 0 64 64" fill="none" xmlns="http://www.w3.org/2000/svg">
<g clip-path="url(#clip0_2752_863)">
<path d="M33 66C51.2876 66 66 51.2876 66 33C66 14.7124 51.2876 0 33 0C14.7124 0 0 14.7124 0 33C0 51.2876 14.7124 66 33 66Z" fill="#2775CA"/>
<path d="M42.0753 38.2244C42.0753 33.412 39.1878 31.762 33.4128 31.0746C29.2878 30.5245 28.4628 29.4246 28.4628 27.4994C28.4628 25.5742 29.8379 24.337 32.5878 24.337C35.0628 24.337 36.4379 25.162 37.1253 27.2245C37.2629 27.637 37.6754 27.9119 38.0879 27.9119H40.2877C40.8378 27.9119 41.2503 27.4994 41.2503 26.9496V26.812C40.7002 23.7869 38.2252 21.4495 35.0628 21.1746V17.8746C35.0628 17.3245 34.6503 16.912 33.9629 16.7744H31.9004C31.3503 16.7744 30.9378 17.1869 30.8002 17.8746V21.037C26.6752 21.5871 24.0629 24.337 24.0629 27.7746C24.0629 32.3121 26.8128 34.0994 32.5878 34.7871C36.4379 35.4745 37.6754 36.2995 37.6754 38.4996C37.6754 40.6997 35.7502 42.2121 33.1379 42.2121C29.5627 42.2121 28.3252 40.6994 27.9127 38.6369C27.7754 38.0871 27.3629 37.8119 26.9504 37.8119H24.6127C24.0629 37.8119 23.6504 38.2244 23.6504 38.7745V38.9121C24.2002 42.3494 26.4003 44.8244 30.9378 45.5121V48.8121C30.9378 49.3619 31.3503 49.7744 32.0377 49.912H34.1002C34.6503 49.912 35.0628 49.4995 35.2004 48.8121V45.5121C39.3254 44.8244 42.0753 41.9369 42.0753 38.2244Z" fill="white"/>
<path d="M25.9882 52.6623C15.2632 48.8125 9.76312 36.85 13.7508 26.2623C15.8133 20.4873 20.3508 16.0874 25.9882 14.0249C26.5383 13.75 26.8132 13.3375 26.8132 12.6498V10.7249C26.8132 10.1748 26.5383 9.76228 25.9882 9.625C25.8506 9.625 25.5757 9.625 25.4381 9.76228C12.3757 13.8873 5.22562 27.775 9.35062 40.8374C11.8256 48.5373 17.7382 54.4499 25.4381 56.9249C25.9882 57.1998 26.5383 56.9249 26.6756 56.3748C26.8132 56.2375 26.8132 56.0999 26.8132 55.825V53.8998C26.8132 53.4873 26.4007 52.9375 25.9882 52.6623ZM40.5633 9.76228C40.0132 9.48739 39.4631 9.76228 39.3258 10.3124C39.1882 10.45 39.1882 10.5873 39.1882 10.8625V12.7874C39.1882 13.3375 39.6007 13.8873 40.0132 14.1625C50.7382 18.0123 56.2383 29.9748 52.2506 40.5625C50.1881 46.3375 45.6506 50.7374 40.0132 52.7999C39.4631 53.0748 39.1882 53.4873 39.1882 54.175V56.0999C39.1882 56.65 39.4631 57.0625 40.0132 57.1998C40.1508 57.1998 40.4257 57.1998 40.5633 57.0625C53.6257 52.9375 60.7758 39.0498 56.6508 25.9874C54.1758 18.1499 48.1256 12.2373 40.5633 9.76228Z" fill="white"/>
</g>
<defs>
<clipPath id="clip0_2752_863">
<rect width="66" height="66" fill="white"/>
</clipPath>
</defs>
</svg>
