<svg width="64" height="64" viewBox="0 0 64 64" fill="none" xmlns="http://www.w3.org/2000/svg">
<mask id="mask0_2752_711" style="mask-type:luminance" maskUnits="userSpaceOnUse" x="-10" y="0" width="96" height="73">
<rect x="-10" width="96" height="73" fill="white"/>
</mask>
<g mask="url(#mask0_2752_711)">
<path fill-rule="evenodd" clip-rule="evenodd" d="M-10 0H86V73H-10V0Z" fill="#F7FCFF"/>
<path fill-rule="evenodd" clip-rule="evenodd" d="M-10 44.6113V50.6947H86V44.6113H-10Z" fill="#E31D1C"/>
<path fill-rule="evenodd" clip-rule="evenodd" d="M-10 55.7637V61.847H86V55.7637H-10Z" fill="#E31D1C"/>
<path fill-rule="evenodd" clip-rule="evenodd" d="M-10 22.3057V28.389H86V22.3057H-10Z" fill="#E31D1C"/>
<path fill-rule="evenodd" clip-rule="evenodd" d="M-10 33.458V39.5413H86V33.458H-10Z" fill="#E31D1C"/>
<path fill-rule="evenodd" clip-rule="evenodd" d="M-10 0V6.08333H86V0H-10Z" fill="#E31D1C"/>
<path fill-rule="evenodd" clip-rule="evenodd" d="M-10 11.1523V17.2357H86V11.1523H-10Z" fill="#E31D1C"/>
<rect x="-10" width="60" height="39.5417" fill="#2E42A5"/>
<path fill-rule="evenodd" clip-rule="evenodd" d="M-4.83434 8.93862L-7.01198 10.4865L-6.27679 7.73193L-8.21094 5.98628H-5.68468L-4.83739 3.73828L-3.84387 5.98628H-1.69031L-3.38242 7.73193L-2.72733 10.4865L-4.83434 8.93862ZM7.16565 8.93862L4.98801 10.4865L5.72321 7.73193L3.78906 5.98628H6.31532L7.16261 3.73828L8.15612 5.98628H10.3097L8.61758 7.73193L9.27267 10.4865L7.16565 8.93862ZM16.988 10.4865L19.1657 8.93862L21.2727 10.4865L20.6176 7.73193L22.3097 5.98628H20.1561L19.1626 3.73828L18.3153 5.98628H15.7891L17.7232 7.73193L16.988 10.4865ZM31.1657 8.93862L28.988 10.4865L29.7232 7.73193L27.7891 5.98628H30.3153L31.1626 3.73828L32.1561 5.98628H34.3097L32.6176 7.73193L33.2727 10.4865L31.1657 8.93862ZM-7.01198 22.6532L-4.83434 21.1053L-2.72733 22.6532L-3.38242 19.8986L-1.69031 18.1529H-3.84387L-4.83739 15.9049L-5.68468 18.1529H-8.21094L-6.27679 19.8986L-7.01198 22.6532ZM7.16565 21.1053L4.98801 22.6532L5.72321 19.8986L3.78906 18.1529H6.31532L7.16261 15.9049L8.15612 18.1529H10.3097L8.61758 19.8986L9.27267 22.6532L7.16565 21.1053ZM16.988 22.6532L19.1657 21.1053L21.2727 22.6532L20.6176 19.8986L22.3097 18.1529H20.1561L19.1626 15.9049L18.3153 18.1529H15.7891L17.7232 19.8986L16.988 22.6532ZM31.1657 21.1053L28.988 22.6532L29.7232 19.8986L27.7891 18.1529H30.3153L31.1626 15.9049L32.1561 18.1529H34.3097L32.6176 19.8986L33.2727 22.6532L31.1657 21.1053ZM-7.01198 34.8198L-4.83434 33.272L-2.72733 34.8198L-3.38242 32.0653L-1.69031 30.3196H-3.84387L-4.83739 28.0716L-5.68468 30.3196H-8.21094L-6.27679 32.0653L-7.01198 34.8198ZM7.16565 33.272L4.98801 34.8198L5.72321 32.0653L3.78906 30.3196H6.31532L7.16261 28.0716L8.15612 30.3196H10.3097L8.61758 32.0653L9.27267 34.8198L7.16565 33.272ZM16.988 34.8198L19.1657 33.272L21.2727 34.8198L20.6176 32.0653L22.3097 30.3196H20.1561L19.1626 28.0716L18.3153 30.3196H15.7891L17.7232 32.0653L16.988 34.8198ZM31.1657 33.272L28.988 34.8198L29.7232 32.0653L27.7891 30.3196H30.3153L31.1626 28.0716L32.1561 30.3196H34.3097L32.6176 32.0653L33.2727 34.8198L31.1657 33.272ZM40.988 10.4865L43.1657 8.93862L45.2727 10.4865L44.6176 7.73193L46.3097 5.98628H44.1561L43.1626 3.73828L42.3153 5.98628H39.7891L41.7232 7.73193L40.988 10.4865ZM43.1657 21.1053L40.988 22.6532L41.7232 19.8986L39.7891 18.1529H42.3153L43.1626 15.9049L44.1561 18.1529H46.3097L44.6176 19.8986L45.2727 22.6532L43.1657 21.1053ZM40.988 34.8198L43.1657 33.272L45.2727 34.8198L44.6176 32.0653L46.3097 30.3196H44.1561L43.1626 28.0716L42.3153 30.3196H39.7891L41.7232 32.0653L40.988 34.8198ZM1.16566 15.022L-1.01198 16.5698L-0.276789 13.8153L-2.21094 12.0696H0.315325L1.16261 9.82162L2.15613 12.0696H4.30969L2.61758 13.8153L3.27267 16.5698L1.16566 15.022ZM10.988 16.5698L13.1657 15.022L15.2727 16.5698L14.6176 13.8153L16.3097 12.0696H14.1561L13.1626 9.82162L12.3153 12.0696H9.78906L11.7232 13.8153L10.988 16.5698ZM25.1657 15.022L22.988 16.5698L23.7232 13.8153L21.7891 12.0696H24.3153L25.1626 9.82162L26.1561 12.0696H28.3097L26.6176 13.8153L27.2727 16.5698L25.1657 15.022ZM-1.01198 28.7365L1.16566 27.1886L3.27267 28.7365L2.61758 25.9819L4.30969 24.2363H2.15613L1.16261 21.9883L0.315325 24.2363H-2.21094L-0.276789 25.9819L-1.01198 28.7365ZM13.1657 27.1886L10.988 28.7365L11.7232 25.9819L9.78906 24.2363H12.3153L13.1626 21.9883L14.1561 24.2363H16.3097L14.6176 25.9819L15.2727 28.7365L13.1657 27.1886ZM22.988 28.7365L25.1657 27.1886L27.2727 28.7365L26.6176 25.9819L28.3097 24.2363H26.1561L25.1626 21.9883L24.3153 24.2363H21.7891L23.7232 25.9819L22.988 28.7365ZM37.1657 15.022L34.988 16.5698L35.7232 13.8153L33.7891 12.0696H36.3153L37.1626 9.82162L38.1561 12.0696H40.3097L38.6176 13.8153L39.2727 16.5698L37.1657 15.022ZM34.988 28.7365L37.1657 27.1886L39.2727 28.7365L38.6176 25.9819L40.3097 24.2363H38.1561L37.1626 21.9883L36.3153 24.2363H33.7891L35.7232 25.9819L34.988 28.7365Z" fill="#F7FCFF"/>
</g>
</svg>
