<svg width="88" height="27" viewBox="0 0 88 27" fill="none" xmlns="http://www.w3.org/2000/svg">
<path d="M87.9986 5.83205H77.4709V10.9497H86.504V16.1973H77.4709V21.6074H87.9986V26.8388H72.207V0.649414H87.9986V5.83205Z" fill="white"/>
<path d="M56.1645 0.649454C64.629 0.633207 69.7954 5.60464 69.7954 13.7766C69.7954 21.8999 64.629 26.8388 56.1645 26.8388H48.5449V0.6657L56.1645 0.649454ZM56.197 21.5912C61.3472 21.5912 64.4828 18.6343 64.4828 13.7604C64.4828 8.85394 61.3309 5.86458 56.1483 5.86458H53.7925V21.5912H56.197Z" fill="white"/>
<path d="M41.2087 26.8392L39.5516 23.1838H29.0726L27.3992 26.8392H21.7129L34.2227 0H34.3852L46.9112 26.8392H41.2087ZM31.1196 18.6997H37.5045L34.3202 11.6975L31.1196 18.6997Z" fill="white"/>
<path d="M0 26.8388L7.96079 13.2405L0.487395 0.649414H6.5311L11.0151 8.57771L15.4829 0.649414H21.5266L14.037 13.2242L22.014 26.8388H15.9703L10.9989 18.0494L6.0437 26.8388H0Z" fill="white"/>
</svg>
