<svg width="64" height="64" viewBox="0 0 64 64" fill="none" xmlns="http://www.w3.org/2000/svg">
<g clip-path="url(#clip0_2752_870)">
<path d="M64.0425 39.7454C59.7682 56.8904 42.4031 67.3245 25.2561 63.0491C8.11635 58.7747 -2.31773 41.4086 1.95846 24.265C6.23089 7.11821 23.5959 -3.31665 40.7376 0.957657C57.8834 5.23197 68.3168 22.6 64.042 39.7457L64.0423 39.7454H64.0425Z" fill="url(#paint0_linear_2752_870)"/>
<path d="M57.7397 27.2598H51.856V30.1199H56.9044V33.0527H51.856V36.0764H57.7397V39.0001H48.9141V24.3633H57.7397V27.2598Z" fill="white"/>
<path d="M39.7624 24.3633C44.493 24.3542 47.3804 27.1327 47.3804 31.6999C47.3804 36.2398 44.493 39.0001 39.7624 39.0001H35.5039V24.3724L39.7624 24.3633ZM39.7805 36.0673C42.6589 36.0673 44.4113 34.4148 44.4113 31.6908C44.4113 28.9487 42.6498 27.278 39.7533 27.278H38.4367V36.0673H39.7805Z" fill="white"/>
<path d="M31.2162 39L30.29 36.957H24.4335L23.4983 39H20.3203L27.3118 24H27.4026L34.4032 39H31.2162ZM25.5776 34.451H29.146L27.3663 30.5375L25.5776 34.451Z" fill="white"/>
<path d="M8 39.0001L12.4492 31.4002L8.2724 24.3633H11.6501L14.1562 28.7943L16.6531 24.3633H20.0309L15.845 31.3911L20.3033 39.0001H16.9255L14.1471 34.0879L11.3777 39.0001H8Z" fill="white"/>
</g>
<rect x="-1" y="-2" width="68" height="68.0072" stroke="black" stroke-width="4"/>
<defs>
<linearGradient id="paint0_linear_2752_870" x1="33" y1="0" x2="33" y2="64.0072" gradientUnits="userSpaceOnUse">
<stop stop-color="#3A258B"/>
<stop offset="1" stop-color="#0E1E26"/>
</linearGradient>
<clipPath id="clip0_2752_870">
<rect x="1" width="64" height="64.0072" fill="white"/>
</clipPath>
</defs>
</svg>
