<svg width="400" height="61" viewBox="0 0 400 61" fill="none" xmlns="http://www.w3.org/2000/svg">
<path d="M32.2307 53.6178V59.6933H0V53.6178H32.2307ZM32.2307 27.0153V33.0908H0V27.0153H32.2307ZM32.2307 0.412903V6.4884H0V0.412903H32.2307Z" fill="white"/>
<path d="M60.3541 29.7287L36.9655 0.766811H44.9519L63.6057 24.5379C63.6438 24.5773 63.6818 24.6363 63.7198 24.7149C63.7959 24.7935 63.8529 24.8329 63.891 24.8329C63.891 24.8722 63.91 24.8919 63.948 24.8919H64.0621L64.1762 24.8329C64.2142 24.8329 64.2713 24.7935 64.3473 24.7149C64.4234 24.6363 64.4804 24.5773 64.5185 24.5379L83.1724 0.766811H91.1017L67.713 29.7287L91.0446 59.6933H84.5985L65.0889 35.5682L64.1762 34.6245H64.0621H63.891C63.8149 34.7031 63.6628 34.8604 63.4346 35.0963C63.2064 35.3323 63.0543 35.4896 62.9782 35.5682L43.4687 59.6933H37.0225L60.3541 29.7287Z" fill="white"/>
<path d="M96.6823 27.4282C97.1767 27.4282 98.0324 27.4282 99.2494 27.4282C100.504 27.4282 101.816 27.4282 103.186 27.4282C104.593 27.3889 105.905 27.3692 107.122 27.3692C108.377 27.3299 109.251 27.3103 109.746 27.3103C111.533 27.2709 113.321 27.1333 115.108 26.8974C116.933 26.6614 118.569 26.1895 120.014 25.4817C121.497 24.7346 122.695 23.6728 123.608 22.2965C124.521 20.9202 124.977 19.072 124.977 16.7519C124.977 14.9037 124.559 13.3307 123.722 12.033C122.923 10.7354 121.877 9.67361 120.584 8.84782C119.291 8.02202 117.846 7.43217 116.249 7.07826C114.652 6.68502 113.092 6.4884 111.571 6.4884H96.3971V0.412903H117.162C119.291 0.412903 121.269 0.845463 123.094 1.71058C124.92 2.53638 126.498 3.67676 127.829 5.13173C129.16 6.58671 130.187 8.27762 130.91 10.2045C131.67 12.1313 132.051 14.1565 132.051 16.28C132.051 18.3641 131.689 20.3893 130.967 22.3555C130.282 24.3217 129.293 26.0716 128 27.6052C126.707 29.0995 125.167 30.3185 123.38 31.2623C121.63 32.1667 119.672 32.6189 117.504 32.6189H103.071V59.6933H96.6823V27.4282Z" fill="white"/>
<path d="M167.101 53.6178V59.6933H134.87V53.6178H167.101ZM141.031 0.70783V59.3983H134.87V0.70783H141.031Z" fill="white"/>
<path d="M171.094 30.0236C171.094 25.7766 171.912 21.8246 173.547 18.1675C175.22 14.4711 177.445 11.2859 180.221 8.61187C182.998 5.93787 186.211 3.83406 189.862 2.30043C193.513 0.766811 197.354 0 201.385 0C205.417 0 209.258 0.766811 212.909 2.30043C216.559 3.83406 219.773 5.93787 222.549 8.61187C225.325 11.2859 227.531 14.4711 229.167 18.1675C230.802 21.8246 231.619 25.7766 231.619 30.0236C231.619 34.2705 230.802 38.2422 229.167 41.9386C227.531 45.5957 225.325 48.7613 222.549 51.4353C219.773 54.1093 216.559 56.2131 212.909 57.7467C209.258 59.2804 205.417 60.0472 201.385 60.0472C197.354 60.0472 193.513 59.2804 189.862 57.7467C186.211 56.2131 182.998 54.1093 180.221 51.4353C177.445 48.7613 175.22 45.5957 173.547 41.9386C171.912 38.2422 171.094 34.2705 171.094 30.0236ZM177.94 29.8466C177.94 33.1891 178.548 36.335 179.765 39.2843C181.02 42.1943 182.712 44.7306 184.842 46.8934C187.01 49.0562 189.501 50.7668 192.315 52.0252C195.167 53.2835 198.191 53.9127 201.385 53.9127C204.58 53.9127 207.584 53.2835 210.399 52.0252C213.251 50.7668 215.742 49.0562 217.872 46.8934C220.039 44.7306 221.732 42.1943 222.949 39.2843C224.204 36.335 224.831 33.1891 224.831 29.8466C224.831 26.5041 224.204 23.3779 222.949 20.4679C221.732 17.5187 220.039 14.9626 217.872 12.7998C215.742 10.637 213.251 8.92647 210.399 7.66811C207.584 6.40975 204.58 5.78058 201.385 5.78058C198.191 5.78058 195.167 6.40975 192.315 7.66811C189.501 8.92647 187.01 10.637 184.842 12.7998C182.712 14.9626 181.02 17.5187 179.765 20.4679C178.548 23.3779 177.94 26.5041 177.94 29.8466Z" fill="white"/>
<path d="M252.306 27.3692L252.02 26.7204C252.287 26.5238 252.629 26.3468 253.047 26.1895C253.466 26.0322 253.903 25.8946 254.359 25.7766C254.816 25.6193 255.253 25.5014 255.671 25.4227C256.09 25.3048 256.413 25.1868 256.641 25.0688C258.581 24.4003 260.159 23.3779 261.376 22.0016C262.593 20.6252 263.201 18.8164 263.201 16.5749C263.201 14.766 262.745 13.0751 261.832 11.5022C260.957 9.88989 259.645 8.74951 257.896 8.08101C257.592 7.96304 257.212 7.8254 256.755 7.66811C256.299 7.51081 255.842 7.37318 255.386 7.25521C254.93 7.09792 254.511 6.96028 254.131 6.84231C253.789 6.72434 253.599 6.66536 253.561 6.66536H234.964V0.70783H253.903C253.941 0.70783 254.093 0.747153 254.359 0.825799C254.625 0.865122 254.911 0.924108 255.215 1.00275C255.557 1.04208 255.88 1.10106 256.185 1.17971C256.527 1.25836 256.793 1.31734 256.983 1.35667C258.847 1.82855 260.558 2.51671 262.117 3.42116C263.715 4.28628 265.065 5.34802 266.168 6.60637C267.271 7.86473 268.126 9.33936 268.735 11.0303C269.381 12.6819 269.704 14.5497 269.704 16.6339C269.704 19.6618 268.982 22.2375 267.537 24.361C266.092 26.4451 264.114 28.2933 261.604 29.9056V30.5545L279.687 59.3983H272.329L252.306 27.3692Z" fill="white"/>
<path d="M315.286 53.6178V59.6933H283.055V53.6178H315.286ZM315.286 27.0153V33.0908H283.055V27.0153H315.286ZM315.286 0.412903V6.4884H283.055V0.412903H315.286Z" fill="white"/>
<path d="M335.423 27.3692L335.137 26.7204C335.404 26.5238 335.746 26.3468 336.164 26.1895C336.583 26.0322 337.02 25.8946 337.476 25.7766C337.933 25.6193 338.37 25.5014 338.788 25.4227C339.207 25.3048 339.53 25.1868 339.758 25.0688C341.698 24.4003 343.276 23.3779 344.493 22.0016C345.71 20.6252 346.318 18.8164 346.318 16.5749C346.318 14.766 345.862 13.0751 344.949 11.5022C344.075 9.88989 342.763 8.74951 341.013 8.08101C340.709 7.96304 340.329 7.8254 339.872 7.66811C339.416 7.51081 338.96 7.37318 338.503 7.25521C338.047 7.09792 337.628 6.96028 337.248 6.84231C336.906 6.72434 336.716 6.66536 336.678 6.66536H318.081V0.70783H337.02C337.058 0.70783 337.21 0.747153 337.476 0.825799C337.743 0.865122 338.028 0.924108 338.332 1.00275C338.674 1.04208 338.998 1.10106 339.302 1.17971C339.644 1.25836 339.91 1.31734 340.1 1.35667C341.964 1.82855 343.675 2.51671 345.235 3.42116C346.832 4.28628 348.182 5.34802 349.285 6.60637C350.388 7.86473 351.243 9.33936 351.852 11.0303C352.498 12.6819 352.822 14.5497 352.822 16.6339C352.822 19.6618 352.099 22.2375 350.654 24.361C349.209 26.4451 347.231 28.2933 344.721 29.9056V30.5545L362.805 59.3983H355.446L335.423 27.3692Z" fill="white"/>
<path d="M367.997 47.1884C369.176 48.0141 370.355 48.8203 371.534 49.6068C372.751 50.3539 373.987 51.0224 375.242 51.6123C376.535 52.2021 377.847 52.6937 379.178 53.0869C380.547 53.4408 381.955 53.6178 383.4 53.6178C384.807 53.6178 386.1 53.3622 387.279 52.851C388.496 52.3397 389.542 51.6319 390.416 50.7275C391.291 49.823 391.957 48.7613 392.413 47.5423C392.907 46.2839 393.155 44.9469 393.155 43.5313V41.1129C392.926 40.2871 392.565 39.5596 392.071 38.9304C391.614 38.2619 391.082 37.672 390.473 37.1608C389.903 36.6103 389.275 36.1188 388.591 35.6862C387.906 35.2143 387.241 34.7817 386.594 34.3885C386.518 34.3099 386.309 34.1919 385.967 34.0346C385.663 33.8773 385.472 33.779 385.396 33.7397C382.696 32.6386 380.224 31.6359 377.98 30.7314C375.737 29.7876 373.797 28.6473 372.162 27.3103C370.564 25.9733 369.31 24.2823 368.397 22.2375C367.484 20.1927 367.028 17.499 367.028 14.1565C367.028 12.4656 367.408 10.8533 368.169 9.3197C368.967 7.78608 369.975 6.39009 371.192 5.13173C372.447 3.87338 373.816 2.81164 375.299 1.94652C376.82 1.04208 378.323 0.412898 379.806 0.058988H383.685C385.967 0.058988 388.135 0.216283 390.188 0.530872C392.242 0.84546 394.257 1.65159 396.235 2.94927C396.425 3.10657 396.672 3.34251 396.977 3.6571C397.319 3.97169 397.49 4.16831 397.49 4.24695V10.9713H397.148C395.132 9.87023 393.059 8.84782 390.93 7.90405C388.8 6.92096 386.575 6.42941 384.255 6.42941C382.924 6.42941 381.65 6.62603 380.433 7.01927C379.254 7.37318 378.19 7.92371 377.239 8.67086C376.288 9.41801 375.527 10.3421 374.957 11.4432C374.425 12.5442 374.158 13.8223 374.158 15.2772C374.158 17.1254 374.52 18.6591 375.242 19.8781C376.003 21.0971 376.992 22.1589 378.209 23.0633C379.426 23.9284 380.795 24.6756 382.316 25.3048C383.875 25.9339 385.453 26.5828 387.051 27.2513C388.686 27.9198 390.264 28.6669 391.785 29.4927C393.345 30.3185 394.733 31.3606 395.95 32.6189C397.167 33.838 398.137 35.3323 398.859 37.1018C399.62 38.8714 400 41.0539 400 43.6492C400 46.3232 399.544 48.7023 398.631 50.7865C397.756 52.8706 396.52 54.6205 394.923 56.0362C393.326 57.4518 391.443 58.5332 389.275 59.2804C387.146 60.0275 384.826 60.4011 382.316 60.4011C380.034 60.4011 377.885 60.0472 375.87 59.3394C373.854 58.5922 371.858 57.6484 369.88 56.508C369.576 56.3114 369.176 56.0558 368.682 55.7412C368.226 55.4266 367.997 55.2497 367.997 55.2104V47.1884Z" fill="white"/>
</svg>
