<svg width="564" height="640" viewBox="0 0 564 640" fill="none" xmlns="http://www.w3.org/2000/svg">
<g clip-path="url(#clip0_364_409)">
<g filter="url(#filter0_bii_364_409)">
<rect width="335.043" height="531.536" rx="19.3145" transform="matrix(-0.475931 -0.879483 0.760406 -0.649448 159.502 639.962)" fill="#070707" fill-opacity="0.7"/>
<rect width="335.043" height="531.536" rx="19.3145" transform="matrix(-0.475931 -0.879483 0.760406 -0.649448 159.502 639.962)" fill="url(#paint0_radial_364_409)"/>
</g>
<g filter="url(#filter1_i_364_409)">
<rect width="70.5624" height="50.4753" rx="9.01345" transform="matrix(0.760406 -0.649448 0.475931 0.879483 100.445 404.104)" fill="url(#paint1_linear_364_409)"/>
</g>
<path d="M108.697 419.522L126.943 403.939C125.878 398.848 124.55 387.619 127.764 383.421C129.462 382.796 133.817 382.049 137.649 384.061M116.398 433.752L134.644 418.169C138.457 425.216 146.681 425.723 150.315 425.096C153.953 419.479 153.003 408.213 152.074 403.282L170.116 387.873M164.249 377.031L146.207 392.44C144.434 391.367 141.084 388.261 141.867 384.421" stroke="url(#paint2_linear_364_409)" stroke-width="0.772581"/>
<path d="M182.426 364.057C183.814 364.859 186.541 367.43 186.348 371.305M185.324 357.773C187.468 359.088 191.817 363.421 192.065 370.23M187.672 351.794C190.518 353.613 196.402 359.671 197.171 369.347M190.62 346.13C194.111 348.171 201.363 355.4 202.447 367.986" stroke="white" stroke-width="2.8328" stroke-linecap="round" stroke-linejoin="round"/>
<path d="M183.863 558.226L181.514 538.6L182.901 537.415L196.582 547.362L194.835 548.855L190.843 545.957L184.88 551.05L185.593 556.748L183.863 558.226ZM183.601 540.656L184.599 548.731L189.229 544.776L183.601 540.656ZM198.146 546.027L192.508 535.609L194.057 534.285L194.925 535.89C194.884 534.158 195.512 532.738 196.809 531.63C197.83 530.758 198.859 530.438 199.897 530.668C200.935 530.899 201.8 531.653 202.491 532.931L205.964 539.349L204.433 540.657L201.107 534.51C200.633 533.635 200.069 533.111 199.414 532.94C198.751 532.754 198.096 532.938 197.447 533.492C196.703 534.128 196.262 535.002 196.126 536.113C196.002 537.214 196.259 538.355 196.898 539.536L199.695 544.704L198.146 546.027ZM212.579 534.005C211.329 535.072 209.993 535.441 208.569 535.114C207.157 534.776 206.045 533.857 205.233 532.357C204.421 530.857 204.15 529.22 204.419 527.446C204.701 525.662 205.466 524.236 206.715 523.17C207.376 522.605 208.082 522.256 208.835 522.121C209.591 521.962 210.269 522.013 210.867 522.274L207.18 515.461L208.729 514.137L217.186 529.765L215.637 531.088L214.768 529.484C214.742 530.278 214.534 531.096 214.146 531.935C213.761 532.751 213.239 533.441 212.579 534.005ZM211.922 532.159C212.811 531.4 213.348 530.413 213.534 529.198C213.719 527.983 213.523 526.841 212.944 525.771C212.365 524.702 211.592 524.052 210.624 523.822C209.657 523.592 208.729 523.857 207.84 524.616C206.939 525.385 206.396 526.377 206.21 527.592C206.025 528.807 206.221 529.949 206.8 531.018C207.379 532.088 208.152 532.738 209.12 532.968C210.087 533.198 211.021 532.928 211.922 532.159ZM220.102 527.274L214.464 516.856L216.014 515.532L217.108 517.554C216.93 516.771 216.976 515.98 217.246 515.181C217.528 514.371 217.939 513.736 218.48 513.274C218.744 513.048 218.993 512.876 219.227 512.757L220.231 514.612C219.955 514.685 219.642 514.871 219.294 515.168C218.669 515.702 218.286 516.486 218.144 517.521C218.002 518.557 218.239 519.644 218.855 520.783L221.652 525.951L220.102 527.274ZM230.334 518.841C229.024 519.959 227.659 520.373 226.238 520.084C224.829 519.784 223.704 518.856 222.862 517.301C222.012 515.731 221.728 514.085 222.008 512.363C222.292 510.617 223.125 509.154 224.506 507.975C225.899 506.785 227.3 506.421 228.71 506.883C230.119 507.345 231.222 508.443 232.021 510.179L224.688 516.441C225.224 517.365 225.952 517.901 226.875 518.047C227.79 518.18 228.655 517.898 229.472 517.2C230.697 516.154 231.252 514.827 231.137 513.219L232.723 511.865C233.021 513.032 232.97 514.253 232.571 515.528C232.172 516.803 231.426 517.907 230.334 518.841ZM227.498 508.831C226.735 508.752 226.006 509.009 225.309 509.604C224.612 510.199 224.119 510.976 223.83 511.934C223.553 512.882 223.607 513.891 223.994 514.963L229.615 510.162C228.959 509.34 228.254 508.897 227.498 508.831ZM244.42 506.505L238.138 500.933L239.97 510.306L238.601 511.475L229.9 503.672L231.522 502.287L237.817 508.031L235.953 498.502L237.143 497.487L243.51 503.169L241.574 493.701L243.214 492.301L245.789 505.336L244.42 506.505ZM256.862 496.245C255.769 497.178 254.663 497.584 253.544 497.464C252.417 497.329 251.497 496.602 250.782 495.282L252.44 493.866C252.846 494.617 253.37 495.033 254.011 495.114C254.664 495.186 255.285 494.971 255.874 494.468C256.486 493.945 256.871 493.292 257.026 492.509C257.182 491.726 257.004 490.862 256.493 489.917L250.81 479.415L252.468 478L258.263 488.71C259.053 490.169 259.289 491.562 258.971 492.889C258.646 494.203 257.943 495.321 256.862 496.245ZM267.495 487.102C266.138 488.261 264.727 488.704 263.262 488.432C261.802 488.135 260.663 487.23 259.843 485.715C259.024 484.201 258.777 482.544 259.102 480.743C259.431 478.918 260.274 477.426 261.632 476.266C262.977 475.117 264.379 474.691 265.84 474.988C267.304 475.26 268.446 476.154 269.266 477.668C270.085 479.182 270.33 480.852 270 482.677C269.675 484.478 268.84 485.953 267.495 487.102ZM263.737 486.29C264.716 486.51 265.668 486.225 266.593 485.435C267.518 484.645 268.073 483.643 268.259 482.428C268.444 481.213 268.251 480.078 267.68 479.022C267.109 477.966 266.339 477.323 265.372 477.093C264.405 476.864 263.459 477.143 262.534 477.933C261.609 478.723 261.048 479.731 260.85 480.956C260.664 482.17 260.857 483.306 261.429 484.361C262 485.417 262.769 486.06 263.737 486.29ZM275.858 479.655L274.309 480.978L265.852 465.35L267.401 464.027L271.088 470.84C271.047 469.109 271.674 467.689 272.972 466.581C273.993 465.709 275.022 465.388 276.06 465.619C277.098 465.85 277.963 466.604 278.654 467.882L282.127 474.3L280.596 475.608L277.27 469.461C276.796 468.586 276.232 468.062 275.577 467.89C274.914 467.705 274.259 467.889 273.61 468.443C272.866 469.079 272.425 469.952 272.289 471.064C272.165 472.165 272.422 473.306 273.061 474.487L275.858 479.655ZM284.917 471.917L279.279 461.498L280.829 460.175L281.697 461.78C281.656 460.048 282.283 458.628 283.581 457.52C284.602 456.648 285.631 456.328 286.669 456.558C287.707 456.789 288.572 457.543 289.263 458.821L292.736 465.239L291.205 466.547L287.879 460.4C287.405 459.525 286.841 459.001 286.186 458.829C285.523 458.644 284.868 458.828 284.219 459.382C283.475 460.018 283.034 460.891 282.898 462.003C282.774 463.104 283.031 464.245 283.67 465.426L286.467 470.594L284.917 471.917ZM298.54 460.587C297.531 461.449 296.53 461.887 295.537 461.902C294.556 461.907 293.756 461.433 293.135 460.481L294.72 459.127C295.132 459.628 295.605 459.854 296.14 459.803C296.687 459.743 297.218 459.492 297.735 459.051C298.251 458.609 298.602 458.137 298.786 457.635C298.983 457.121 298.961 456.643 298.72 456.198C298.494 455.781 298.19 455.544 297.807 455.485C297.436 455.416 296.941 455.524 296.323 455.808L294.811 456.52C293.006 457.371 291.679 457.012 290.83 455.442C290.371 454.595 290.291 453.668 290.589 452.661C290.9 451.645 291.511 450.747 292.424 449.967C293.349 449.177 294.26 448.816 295.156 448.883C296.058 448.925 296.777 449.347 297.315 450.146L295.766 451.47C295.398 451.114 294.986 450.937 294.531 450.94C294.088 450.933 293.656 451.108 293.236 451.467C292.792 451.847 292.483 452.283 292.311 452.776C292.15 453.258 292.175 453.694 292.386 454.083C292.589 454.458 292.862 454.671 293.206 454.722C293.55 454.774 294.004 454.671 294.567 454.413L296.245 453.62C298.023 452.752 299.348 453.123 300.22 454.734C300.761 455.735 300.864 456.753 300.53 457.79C300.188 458.814 299.525 459.746 298.54 460.587ZM305.486 454.35L303.936 455.673L295.479 440.045L297.029 438.722L300.716 445.536C300.674 443.804 301.302 442.384 302.599 441.277C303.62 440.405 304.65 440.084 305.688 440.315C306.726 440.545 307.591 441.3 308.282 442.578L311.755 448.995L310.224 450.303L306.897 444.156C306.424 443.281 305.86 442.758 305.205 442.586C304.542 442.4 303.887 442.584 303.238 443.138C302.493 443.774 302.053 444.648 301.917 445.759C301.793 446.861 302.05 448.002 302.689 449.182L305.486 454.35ZM318.658 443.405C317.3 444.564 315.889 445.007 314.425 444.735C312.965 444.438 311.825 443.533 311.006 442.019C310.186 440.504 309.939 438.847 310.264 437.046C310.593 435.221 311.437 433.729 312.794 432.57C314.139 431.421 315.542 430.995 317.002 431.291C318.467 431.564 319.609 432.457 320.428 433.971C321.247 435.485 321.492 437.155 321.163 438.98C320.838 440.781 320.003 442.256 318.658 443.405ZM314.899 442.593C315.878 442.813 316.831 442.528 317.755 441.738C318.68 440.948 319.235 439.946 319.421 438.731C319.607 437.516 319.414 436.381 318.842 435.325C318.271 434.27 317.502 433.627 316.534 433.397C315.567 433.167 314.621 433.447 313.696 434.237C312.771 435.026 312.21 436.034 312.012 437.259C311.827 438.474 312.02 439.609 312.591 440.665C313.162 441.72 313.932 442.363 314.899 442.593ZM325.471 437.281L319.833 426.862L321.382 425.539L322.251 427.144C322.209 425.412 322.837 423.992 324.134 422.884C325.155 422.012 326.184 421.692 327.222 421.922C328.26 422.153 329.125 422.907 329.817 424.185L333.29 430.603L331.758 431.911L328.432 425.764C327.958 424.889 327.394 424.365 326.739 424.193C326.077 424.008 325.421 424.192 324.773 424.746C324.028 425.382 323.588 426.256 323.451 427.367C323.327 428.468 323.585 429.609 324.224 430.79L327.02 435.958L325.471 437.281Z" fill="#E1E1E1"/>
<path d="M76.5419 359.701L79.8143 356.906L79.5187 349.111L85.1892 352.316L88.4616 349.521L79.5284 344.684L79.3222 333.345L76.0498 336.14L76.3175 343.171L71.2028 340.28L67.9303 343.075L76.2439 347.504L76.5419 359.701ZM99.3961 340.182L102.484 337.545L86.6057 326.529L86.5177 326.605L88.8399 349.198L91.9187 346.568L91.586 343.505L97.26 338.659L99.3961 340.182ZM91.1748 339.75L90.5347 333.885L94.6319 336.798L91.1748 339.75ZM99.1591 316.403L95.0389 319.937L103.909 336.328L108.035 332.804C112.618 328.89 113.741 323.407 110.988 318.32C108.219 313.203 103.737 312.478 99.1591 316.403ZM106.274 329.503L104.972 330.615L99.6421 320.766L100.918 319.676C103.724 317.28 106.444 317.694 108.106 320.767C109.758 323.819 109.062 327.121 106.274 329.503ZM118.694 304.464L116.937 301.219L108.387 308.522L117.262 324.923L125.813 317.62L124.04 314.344L118.34 319.212L116.506 315.824L121.397 311.647L119.619 308.361L114.728 312.538L112.994 309.333L118.694 304.464Z" fill="white"/>
</g>
<defs>
<filter id="filter0_bii_364_409" x="-57.7861" y="-55.8762" width="679.303" height="751.807" filterUnits="userSpaceOnUse" color-interpolation-filters="sRGB">
<feFlood flood-opacity="0" result="BackgroundImageFix"/>
<feGaussianBlur in="BackgroundImageFix" stdDeviation="32.1909"/>
<feComposite in2="SourceAlpha" operator="in" result="effect1_backgroundBlur_364_409"/>
<feBlend mode="normal" in="SourceGraphic" in2="effect1_backgroundBlur_364_409" result="shape"/>
<feColorMatrix in="SourceAlpha" type="matrix" values="0 0 0 0 0 0 0 0 0 0 0 0 0 0 0 0 0 0 127 0" result="hardAlpha"/>
<feOffset dx="-0.515054" dy="-0.515054"/>
<feGaussianBlur stdDeviation="0.386291"/>
<feComposite in2="hardAlpha" operator="arithmetic" k2="-1" k3="1"/>
<feColorMatrix type="matrix" values="0 0 0 0 0 0 0 0 0 0 0 0 0 0 0 0 0 0 0.36 0"/>
<feBlend mode="normal" in2="shape" result="effect2_innerShadow_364_409"/>
<feColorMatrix in="SourceAlpha" type="matrix" values="0 0 0 0 0 0 0 0 0 0 0 0 0 0 0 0 0 0 127 0" result="hardAlpha"/>
<feOffset dx="1.28764" dy="1.03011"/>
<feGaussianBlur stdDeviation="0.515054"/>
<feComposite in2="hardAlpha" operator="arithmetic" k2="-1" k3="1"/>
<feColorMatrix type="matrix" values="0 0 0 0 1 0 0 0 0 1 0 0 0 0 1 0 0 0 0.25 0"/>
<feBlend mode="normal" in2="effect2_innerShadow_364_409" result="effect3_innerShadow_364_409"/>
</filter>
<filter id="filter1_i_364_409" x="103.502" y="362.204" width="71.5645" height="82.3667" filterUnits="userSpaceOnUse" color-interpolation-filters="sRGB">
<feFlood flood-opacity="0" result="BackgroundImageFix"/>
<feBlend mode="normal" in="SourceGraphic" in2="BackgroundImageFix" result="shape"/>
<feColorMatrix in="SourceAlpha" type="matrix" values="0 0 0 0 0 0 0 0 0 0 0 0 0 0 0 0 0 0 127 0" result="hardAlpha"/>
<feOffset dx="-0.772581" dy="-0.772581"/>
<feComposite in2="hardAlpha" operator="arithmetic" k2="-1" k3="1"/>
<feColorMatrix type="matrix" values="0 0 0 0 0 0 0 0 0 0 0 0 0 0 0 0 0 0 0.25 0"/>
<feBlend mode="normal" in2="shape" result="effect1_innerShadow_364_409"/>
</filter>
<radialGradient id="paint0_radial_364_409" cx="0" cy="0" r="1" gradientUnits="userSpaceOnUse" gradientTransform="translate(-10.4298 -7.46826) rotate(60.0023) scale(582.825 367.372)">
<stop stop-color="white" stop-opacity="0.3"/>
<stop offset="1" stop-color="white" stop-opacity="0"/>
</radialGradient>
<linearGradient id="paint1_linear_364_409" x1="0" y1="0" x2="63.2229" y2="50.4753" gradientUnits="userSpaceOnUse">
<stop stop-color="#ABABAB"/>
<stop offset="0.3125" stop-color="white"/>
<stop offset="0.630208" stop-color="#BDBDBD"/>
<stop offset="1" stop-color="#5E5E5E"/>
</linearGradient>
<linearGradient id="paint2_linear_364_409" x1="103.751" y1="404.923" x2="173.152" y2="408.494" gradientUnits="userSpaceOnUse">
<stop stop-color="#7D7D7D"/>
<stop offset="0.494792" stop-color="white"/>
<stop offset="1" stop-color="#1C1C1C"/>
</linearGradient>
<clipPath id="clip0_364_409">
<rect width="531.536" height="335.043" fill="white" transform="matrix(0.760406 -0.649448 0.475931 0.879483 0.0449219 345.298)"/>
</clipPath>
</defs>
</svg>
